<svg width="145" height="26" viewBox="0 0 145 26" fill="none" xmlns="http://www.w3.org/2000/svg">
<path fill-rule="evenodd" clip-rule="evenodd" d="M13.9679 0.43117C11.9327 0.7999 9.59499 1.74944 7.92886 2.88408C4.55534 5.18113 2.33103 8.38592 1.28492 12.4566C0.948477 13.766 0.910772 14.1309 0.90919 16.095C0.906817 19.0066 1.31419 20.8783 2.44981 23.1732C2.91281 24.1086 3.90052 25.7531 3.99953 25.7531C4.03749 25.7531 6.91584 20.0376 10.3956 13.052C13.8754 6.06638 16.7527 0.350862 16.7896 0.350862C16.8265 0.350862 19.7039 6.06876 23.1841 13.0572L29.5116 25.7636L29.7961 25.4076C30.7686 24.1909 31.8906 21.6152 32.3779 19.481C32.7478 17.8604 32.7742 14.8101 32.4322 13.1843C31.0296 6.51568 26.0121 1.5617 19.5074 0.423364C18.0644 0.170797 15.3833 0.174633 13.9679 0.43117ZM46.006 2.43464C45.9682 2.56192 44.7738 7.66725 43.3517 13.7797C41.9296 19.8921 40.7363 24.9973 40.6999 25.1247C40.6388 25.3392 40.8123 25.3562 43.0633 25.3562H45.4926L45.9928 23.0409L46.493 20.7256H49.2805H52.068L52.5168 23.0409L52.9656 25.3562H55.9711C57.6242 25.3562 58.9767 25.3306 58.9767 25.2991C58.9767 25.2677 57.6961 20.0583 56.1309 13.7225L53.2851 2.20311H49.6798C46.3604 2.20311 46.0692 2.2215 46.006 2.43464ZM49.2209 7.31307C49.2209 7.38267 48.8056 9.4167 48.2981 11.8331C47.7905 14.2496 47.3752 16.3161 47.3752 16.4255C47.3752 16.5931 47.6742 16.6242 49.2868 16.6242C50.7283 16.6242 51.1984 16.5836 51.1983 16.4588C51.1979 16.1516 49.3795 7.34562 49.2999 7.26571C49.2564 7.22218 49.2209 7.24348 49.2209 7.31307ZM75.4708 8.89516C73.0689 9.54331 71.3197 11.4796 70.561 14.3298C70.2051 15.6673 70.1702 18.3292 70.4896 19.7995C70.8116 21.2827 71.6494 22.8812 72.6106 23.846C73.9246 25.1648 75.4667 25.7531 77.6101 25.7531C79.5301 25.7531 80.9438 25.2168 82.2671 23.9864C82.9699 23.3329 84.0253 21.8052 84.0253 21.4412C84.0253 21.3197 80.8788 20.0618 80.5789 20.0636C80.5324 20.0638 80.4568 20.2144 80.4108 20.3982C80.3037 20.8264 79.4829 21.74 78.963 22.0098C78.3615 22.322 77.2598 22.2995 76.8113 21.966C76.0258 21.3821 75.632 20.4917 75.5604 19.138L75.5219 18.4103L79.9252 18.3754L84.3286 18.3406L84.2511 16.6554C84.1263 13.94 83.4646 12.0441 82.1291 10.5753C80.9202 9.24563 79.5156 8.68056 77.4548 8.69472C76.7542 8.69948 75.8615 8.78971 75.4708 8.89516ZM94.1106 8.87108C93.2217 9.15315 92.6962 9.48695 91.837 10.3148L91.0125 11.1094V10.1015V9.09375L88.4305 9.05525C87.0104 9.03408 85.8239 9.04162 85.7938 9.07192C85.7638 9.10221 85.7391 12.7785 85.7391 17.2417V25.3562H88.3758H91.0125V19.387V13.4178L91.5243 12.9041C91.9725 12.4544 92.1125 12.3905 92.651 12.3905C93.1278 12.3905 93.3382 12.4633 93.5892 12.7153L93.9129 13.04V19.1982V25.3562H96.5529H99.1929L99.1566 18.1788C99.1226 11.4382 99.1052 10.9705 98.8703 10.4959C98.54 9.82856 97.9315 9.23161 97.2776 8.93353C96.6457 8.6455 94.9283 8.61163 94.1106 8.87108ZM121.31 8.8728C118.792 9.59981 117.162 11.4347 116.303 14.5073C116.039 15.4508 116.075 19.0094 116.358 20.0641C117.336 23.6974 119.849 25.7531 123.312 25.7531C125.373 25.7531 126.951 25.1406 128.254 23.8347C128.925 23.1632 130.031 21.4607 129.883 21.3271C129.832 21.2805 126.494 20.0641 126.417 20.0641C126.39 20.0641 126.238 20.3321 126.08 20.6596C125.355 22.1644 123.534 22.7165 122.359 21.7884C121.889 21.4176 121.461 20.3208 121.373 19.2586L121.296 18.3441H125.751H130.205L130.111 16.8557C129.952 14.3172 129.514 12.759 128.556 11.32C127.917 10.3592 126.852 9.48219 125.83 9.07496C124.902 8.70491 122.295 8.58835 121.31 8.8728ZM135.664 8.88458C133.939 9.36034 132.601 10.4406 131.857 11.9564C131.477 12.7328 131.42 12.9792 131.423 13.8531C131.426 14.7185 131.487 14.9803 131.863 15.7465C132.551 17.1502 133.478 17.7957 136.298 18.8354C138.202 19.5377 138.933 19.947 139.197 20.4596C139.471 20.9914 139.446 21.3137 139.099 21.7175C138.518 22.394 137.069 22.4163 136.239 21.7617C135.925 21.5136 135.108 20.4502 135.014 20.1672C134.96 20.0065 130.958 21.2477 130.958 21.4248C130.958 21.7907 131.877 23.1891 132.523 23.8058C133.52 24.7576 134.267 25.173 135.584 25.5072C137.004 25.8676 139.284 25.8033 140.506 25.3684C142.53 24.6475 143.733 23.3091 144.142 21.3238C144.468 19.7405 144.079 18.2742 143.063 17.254C142.298 16.4867 141.423 16.0136 139.105 15.1125C137.094 14.3314 136.451 13.91 136.291 13.2696C136.027 12.2164 137.783 11.5531 138.876 12.2927C139.304 12.5819 140.099 13.5175 140.218 13.8715C140.263 14.0053 140.661 13.9443 141.978 13.6019C142.915 13.3586 143.752 13.1196 143.839 13.0707C143.954 13.0068 143.873 12.7215 143.55 12.0518C142.781 10.4555 141.409 9.35042 139.594 8.86552C138.762 8.64325 136.499 8.65423 135.664 8.88458ZM57.2628 9.13503C57.2628 9.20012 58.2417 12.8444 59.4381 17.2335C60.6345 21.6225 61.6134 25.2456 61.6134 25.2849C61.6134 25.3241 62.5033 25.3562 63.5909 25.3562C64.6785 25.3562 65.5684 25.3347 65.5684 25.3083C65.5684 25.2819 66.606 21.7012 67.8741 17.3513C69.1421 13.0015 70.1952 9.3561 70.2141 9.25079C70.243 9.09017 69.9409 9.06226 68.3414 9.07761C67.2926 9.08766 66.4078 9.12246 66.3755 9.155C66.3432 9.18742 65.8544 11.156 65.2893 13.5296C64.2621 17.8451 64.1537 18.2612 64.1223 18.0134C64.113 17.9406 63.7076 15.8988 63.2211 13.476L62.3368 9.07112L59.7997 9.04387C58.3759 9.02865 57.2628 9.06861 57.2628 9.13503ZM101.087 9.07192C100.956 9.20382 101.039 22.4679 101.175 23.1027C101.388 24.0998 102.014 24.9431 102.878 25.3966C103.553 25.7513 103.686 25.7739 104.807 25.7268C105.877 25.6817 106.122 25.6211 107.005 25.1833C107.68 24.8487 108.192 24.4742 108.602 24.0168L109.206 23.3431V24.3497V25.3562H111.842H114.479V17.1865V9.01675L111.875 9.044L109.272 9.07126L109.237 15.0375C109.207 20.3041 109.178 21.0425 108.987 21.3345C108.5 22.0809 107.377 22.2783 106.741 21.7294L106.371 21.4103L106.333 15.2519L106.295 9.09362L103.718 9.05525C102.301 9.03408 101.117 9.04162 101.087 9.07192ZM76.6407 12.1853C76.4584 12.2848 76.1815 12.595 76.0254 12.8746C75.7251 13.4127 75.3885 14.9523 75.5235 15.1714C75.5698 15.2467 76.4112 15.3012 77.5264 15.3012H79.4492L79.3689 14.4378C79.2641 13.3111 78.8894 12.4687 78.3745 12.2014C77.8864 11.9481 77.0884 11.9407 76.6407 12.1853ZM122.207 12.4144C121.715 12.9085 121.334 13.948 121.334 14.7995V15.3082L123.275 15.2717L125.215 15.235L125.178 14.5735C125.123 13.5836 124.923 12.9561 124.514 12.4973C124.205 12.1505 124.029 12.0753 123.403 12.0232C122.696 11.9643 122.636 11.9838 122.207 12.4144Z" fill="black"/>
</svg>
