<svg width="156" height="72" viewBox="0 0 156 72" fill="none" xmlns="http://www.w3.org/2000/svg">
<g clip-path="url(#clip0_68_806)">
<path d="M64.3423 27.4285H69.1371V43.1611H75.0602V47.4177H64.3423V27.4285ZM80.3294 40.6899V42.6953C80.3294 44.3255 80.9448 44.7395 81.6114 44.7395C82.2781 44.7395 82.8935 44.1832 82.8935 42.1519H87.0729C87.0729 45.8134 85.4447 47.8576 81.5986 47.8576C77.1114 47.8576 75.6627 45.6711 75.6627 39.9136C75.6627 34.1562 77.4191 31.9309 81.5986 31.9309C85.3165 31.9309 87.2011 33.7163 87.2011 39.2021V40.7417L80.3294 40.6899ZM82.8935 37.2743C82.8935 35.6829 82.5858 34.9584 81.6114 34.9584C80.6371 34.9584 80.3294 35.6829 80.3294 37.2743V37.9471H82.8935V37.2743ZM95.2524 47.4177C95.1104 46.857 95.0118 46.286 94.9575 45.7099C94.7192 46.3533 94.2893 46.9065 93.7269 47.2934C93.1644 47.6803 92.4971 47.8819 91.8165 47.8705C89.0216 47.8705 87.9704 46.0204 87.9704 43.4198C87.9704 40.8193 88.8678 39.3056 91.8165 38.5422L93.6498 38.0764C94.6498 37.8177 95.0088 37.339 95.0088 36.4204C95.0088 35.5018 94.6242 34.9325 93.8293 34.9325C93.0344 34.9325 92.5473 35.3465 92.5473 36.9508H88.4832C88.4832 32.6037 91.7139 31.8533 93.8293 31.8533C97.0857 31.8533 99.3549 32.7719 99.3549 36.718V44.1185C99.2659 45.2285 99.4145 46.3449 99.7908 47.3918L95.2524 47.4177ZM94.9575 41.932V40.1077C94.6883 40.4959 94.0472 40.47 93.3806 40.8064C92.7139 41.1428 92.419 41.7638 92.419 42.7729C92.419 43.7821 92.8549 44.4161 93.5601 44.4161C94.5985 44.4161 95.0088 43.5751 95.0088 41.932H94.9575ZM101.291 32.2673H105.778V34.6737C105.914 33.9219 106.297 33.2379 106.864 32.7312C107.431 32.2246 108.15 31.9246 108.906 31.8791H109.65V36.5756C109.269 36.5038 108.883 36.4692 108.496 36.4721C106.842 36.4721 105.932 37.1708 105.932 39.1503V47.4177H101.291V32.2673ZM110.509 32.2673H114.996V34.1174C115.248 33.4274 115.712 32.8373 116.322 32.4343C116.931 32.0313 117.653 31.8366 118.38 31.8791C120.419 31.8791 122.021 32.746 122.021 35.9934V47.4177H117.419V37.4166C117.419 36.1228 117.111 35.6312 116.291 35.6312C115.47 35.6312 115.15 36.1616 115.15 37.4166V47.4177H110.509V32.2673ZM124.009 32.2673H128.65V47.4177H124.009V32.2673ZM130.598 32.2673H135.085V34.1174C135.335 33.4262 135.8 32.8349 136.41 32.4316C137.02 32.0283 137.742 31.8345 138.47 31.8791C140.508 31.8791 142.111 32.746 142.111 35.9934V47.4177H137.56V37.4166C137.56 36.1228 137.252 35.6312 136.432 35.6312C135.611 35.6312 135.291 36.1616 135.291 37.4166V47.4177H130.65L130.598 32.2673ZM151.175 32.2673H155.508V47.1589C155.508 51.312 152.944 52.567 149.675 52.567C146.675 52.567 144.329 51.7519 144.252 48.3104H148.432C148.418 48.4685 148.439 48.6277 148.492 48.7768C148.546 48.9259 148.632 49.0614 148.743 49.1736C148.854 49.2858 148.988 49.3721 149.136 49.4264C149.284 49.4806 149.442 49.5016 149.598 49.4878C150.29 49.4878 151.021 49.2937 151.021 47.6118V44.7266C150.828 45.4193 150.403 46.0231 149.819 46.4358C149.235 46.8485 148.527 47.0445 147.816 46.9907C145.957 46.9907 143.739 45.8134 143.739 39.5126C143.739 33.6646 145.342 31.8791 148.047 31.8791C148.767 31.8645 149.469 32.105 150.031 32.5589C150.593 33.0128 150.98 33.6513 151.124 34.3632L151.175 32.2673ZM149.726 43.2387C150.573 43.2387 151.008 42.6306 151.008 39.4349C151.008 36.2392 150.56 35.6312 149.726 35.6312C148.893 35.6312 148.444 36.2781 148.444 39.4349C148.444 42.5918 148.855 43.2387 149.726 43.2387ZM50.6501 52.787C50.6501 50.5228 50.2655 49.85 49.368 49.85C47.8937 49.85 47.7398 51.2991 47.7398 56.7072C47.7398 62.1153 47.8937 63.5643 49.368 63.5643C50.5603 63.5643 50.8167 62.4516 50.8167 58.6608H55.4577V60.1487C55.4577 65.7508 52.4449 67.0964 49.368 67.0964C43.9706 67.0964 42.7783 64.1465 42.7783 56.746C42.7783 49.0996 44.3809 46.3956 49.368 46.3956C53.7013 46.3956 55.3295 48.8538 55.3295 52.7223V54.0161H50.6501V52.787ZM63.7397 66.6953C63.6011 66.1345 63.5068 65.5634 63.4577 64.9875C63.2103 65.6234 62.7749 66.167 62.2106 66.5443C61.6463 66.9216 60.9805 67.1144 60.3039 67.0964C57.509 67.0964 56.4577 65.2463 56.4577 62.6457C56.4577 59.8382 57.3552 58.5185 60.3039 57.7681L62.1372 57.2894C63.1372 57.0436 63.509 56.5649 63.509 55.6463C63.509 54.7277 63.1115 54.236 62.3167 54.236C61.5218 54.236 61.0346 54.663 61.0346 56.2543H56.9193C56.9193 51.9201 60.15 51.1568 62.2654 51.1568C65.5218 51.1568 67.791 52.0883 67.791 56.0344V63.3961C67.7019 64.5061 67.8506 65.6225 68.2269 66.6694L63.7397 66.6953ZM63.4577 61.2096V59.3983C63.2013 59.7864 62.5474 59.7605 61.8808 60.0969C61.2141 60.4333 60.9192 61.0414 60.9192 62.0506C60.9192 63.0597 61.368 63.7066 62.0603 63.7066C63.0346 63.7066 63.4577 62.8657 63.4577 61.2096ZM69.7269 51.5578H74.214V53.9643C74.343 53.2101 74.7211 52.5222 75.2867 52.0125C75.8524 51.5027 76.5723 51.2011 77.3294 51.1568H78.0858V55.8662C77.7023 55.7846 77.3111 55.7455 76.9191 55.7498C75.2653 55.7498 74.3551 56.4484 74.3551 58.4409V66.6953H69.7269V51.5578ZM83.1755 59.9805V61.9729C83.1755 63.5902 83.8037 64.0171 84.4576 64.0171C85.1114 64.0171 85.7396 63.4479 85.7396 61.4295H89.9191C89.9191 65.1039 88.2909 67.1481 84.4447 67.1481C79.9576 67.1481 78.5089 64.9616 78.5089 59.1913C78.5089 53.4209 80.2653 51.2085 84.4447 51.2085C88.1627 51.2085 90.0473 53.0069 90.0473 58.4926V60.0322L83.1755 59.9805ZM85.7396 56.5649C85.7396 54.9735 85.4319 54.236 84.4576 54.236C83.4832 54.236 83.1755 54.9735 83.1755 56.5649V57.2376H85.7396V56.5649ZM101.355 51.5837H102.945V65.6603C102.945 69.8522 101.406 71.9999 97.9831 71.9999C95.0601 71.9999 93.5216 70.4473 93.496 68.2867H95.2011C95.2011 69.7099 96.4831 70.5638 98.0472 70.5638C100.124 70.5638 101.227 69.1147 101.227 66.4236V64.0301C101.034 64.8207 100.579 65.5212 99.9382 66.0154C99.2969 66.5095 98.5076 66.7677 97.7011 66.7471C95.3678 66.7471 93.0344 65.2074 93.0344 59.1525C93.0344 53.9773 94.5344 51.2473 97.8677 51.2473C98.667 51.2339 99.4478 51.49 100.086 51.9752C100.725 52.4603 101.185 53.1467 101.393 53.9255H101.457L101.355 51.5837ZM97.9703 65.3109C99.9831 65.3109 101.175 63.836 101.175 58.9843C101.175 54.1325 99.9831 52.6705 97.9703 52.6705C95.9575 52.6705 94.7524 54.1584 94.7524 58.9843C94.7524 63.8101 95.9447 65.3109 97.9703 65.3109ZM105.098 51.5837H106.791V53.9643C107.065 53.1591 107.584 52.4622 108.276 51.974C108.967 51.4858 109.793 51.2314 110.637 51.2473C110.841 51.2457 111.044 51.2762 111.239 51.3379V53.0457C110.969 52.9914 110.695 52.9611 110.419 52.9552C108.573 52.9552 106.791 54.3395 106.791 57.2635V66.7471H105.098V51.5837ZM116.227 51.2473C119.56 51.2473 121.432 53.8349 121.432 59.1525C121.432 64.47 119.611 67.0835 116.227 67.0835C112.842 67.0835 111.022 64.4312 111.022 59.1525C111.022 53.8738 112.893 51.2473 116.227 51.2473ZM116.227 65.6603C118.137 65.6603 119.611 64.0042 119.611 59.1913C119.611 54.3783 118.137 52.7223 116.227 52.7223C114.316 52.7223 112.842 54.3783 112.842 59.1913C112.842 64.0042 114.316 65.6603 116.227 65.6603ZM122.739 51.5837H124.444V62.2576C124.444 64.7158 125.278 65.6603 127.009 65.6603C128.739 65.6603 130.303 64.1207 130.303 61.7789V51.5837H132.009V66.7471H130.47V64.6899C130.125 65.4236 129.58 66.0431 128.899 66.4761C128.218 66.9091 127.429 67.1377 126.624 67.1352C124.316 67.1352 122.778 65.932 122.778 63.0856L122.739 51.5837ZM134.009 51.5837H135.547V53.7573C135.831 52.9978 136.343 52.3472 137.012 51.8969C137.682 51.4467 138.474 51.2195 139.278 51.2473C142.637 51.2473 144.085 53.9255 144.085 59.1783C144.085 64.4312 142.573 67.0835 139.252 67.0835C138.453 67.149 137.658 66.9242 137.009 66.4497C136.36 65.9752 135.901 65.2822 135.714 64.4958V71.8058H134.009V51.5837ZM139.137 52.6705C138.665 52.675 138.202 52.7952 137.786 53.0205C137.371 53.2459 137.016 53.5698 136.752 53.9643C136.009 55.0252 135.778 56.5519 135.778 59.1395C135.778 64.7417 137.342 65.6085 139.085 65.6085C140.829 65.6085 142.38 64.7287 142.38 59.1395C142.38 53.5503 140.726 52.6705 139.073 52.6705H139.137Z" fill="black"/>
<path d="M30.035 20.4161C31.6504 14.4516 34.1504 8.79774 34.9965 2.5875C35.0762 2.21224 35.0762 1.82421 34.9965 1.44895C34.9359 1.00762 34.7055 0.608124 34.3552 0.336931C34.0049 0.065738 33.5629 -0.0553407 33.1248 -0.000101524C32.2658 -0.000101524 31.8427 1.6689 31.8427 1.6689C30.2658 7.68507 29.1248 13.8177 27.894 19.9244C27.8477 20.0676 27.8314 20.219 27.8461 20.3689C27.8608 20.5188 27.9062 20.664 27.9795 20.7952C28.0528 20.9265 28.1523 21.0409 28.2717 21.1313C28.3911 21.2216 28.5279 21.286 28.6732 21.3202C28.8186 21.3544 28.9694 21.3577 29.1162 21.3299C29.2629 21.3022 29.4023 21.244 29.5255 21.1589C29.6487 21.0739 29.7531 20.964 29.832 20.8361C29.9109 20.7082 29.9625 20.5652 29.9837 20.4161H30.035Z" fill="#007DC3"/>
<path d="M33.2534 6.23615C35.4841 11.4113 38.8944 15.8879 42.2277 20.468C42.3977 20.6711 42.613 20.8308 42.8559 20.9337C43.2151 21.1962 43.6568 21.3174 44.0982 21.2746C44.5396 21.2317 44.9504 21.0277 45.2533 20.7008C45.5524 20.3483 45.7013 19.8908 45.6677 19.428C45.6341 18.9651 45.4206 18.5345 45.0738 18.2297L45.0226 18.1132C41.2436 14.1406 37.7113 9.93641 34.4457 5.52456C34.3932 5.43299 34.3226 5.35323 34.2385 5.29017C34.1543 5.22711 34.0582 5.18208 33.9562 5.15784C33.8541 5.13361 33.7482 5.13069 33.645 5.14925C33.5418 5.16781 33.4434 5.20747 33.356 5.2658C32.9842 5.51162 33.2534 6.23615 33.2534 6.23615Z" fill="#007DC3"/>
<path d="M43.971 16.8194C49.6633 15.9784 55.5094 15.7973 61.0093 14.2318C61.199 14.1821 61.3771 14.0951 61.5334 13.9758C61.6896 13.8565 61.8209 13.7071 61.9198 13.5364C62.0187 13.3657 62.0832 13.1769 62.1096 12.981C62.1359 12.785 62.1236 12.5857 62.0734 12.3946C61.9196 11.6442 60.2658 11.6442 60.2658 11.6442C54.7017 12.938 49.4197 14.8916 43.8941 16.3277C43.8537 16.3345 43.815 16.3493 43.7802 16.3712C43.7455 16.3931 43.7153 16.4216 43.6915 16.4553C43.6677 16.4889 43.6507 16.527 43.6415 16.5672C43.6322 16.6075 43.6309 16.6492 43.6377 16.69C43.6444 16.7308 43.659 16.7698 43.6807 16.8049C43.7024 16.84 43.7307 16.8704 43.764 16.8944C43.7974 16.9184 43.8351 16.9356 43.875 16.9449C43.9149 16.9543 43.9562 16.9556 43.9966 16.9488L43.971 16.8194ZM3.31739 13.1321C8.91992 11.8383 22.8301 7.95686 28.2275 5.8609C28.4173 5.79329 28.5917 5.68783 28.7402 5.55079C28.8888 5.41376 29.0085 5.24794 29.0923 5.06324C29.176 4.87853 29.222 4.6787 29.2277 4.47566C29.2333 4.27262 29.1983 4.07052 29.1249 3.88138C28.8429 3.15686 27.3044 3.18273 27.3044 3.18273C21.8557 4.96818 8.57376 10.6738 3.17636 12.5628C3.13668 12.5719 3.09919 12.5889 3.06606 12.6128C3.03293 12.6366 3.00482 12.6669 2.98336 12.7018C2.9619 12.7367 2.94751 12.7755 2.94103 12.8161C2.93454 12.8566 2.9361 12.8981 2.94559 12.938C2.95446 12.9778 2.97133 13.0153 2.99517 13.0482C3.01901 13.0812 3.0493 13.1088 3.08416 13.1294C3.11903 13.1501 3.15772 13.1632 3.19784 13.1681C3.23796 13.173 3.27865 13.1696 3.31739 13.1579V13.1321ZM1.97124 19.0835C7.57377 17.7897 21.4839 13.9083 26.8813 11.8253C27.2524 11.6881 27.5548 11.4086 27.7229 11.0477C27.8909 10.6867 27.911 10.2734 27.7788 9.89756C27.4967 9.12128 25.9455 9.14715 25.9455 9.14715C20.5096 10.9326 7.22762 16.6383 1.83022 18.5272C1.7903 18.5377 1.75287 18.5561 1.72015 18.5814C1.68744 18.6068 1.6601 18.6385 1.63977 18.6747C1.61944 18.7109 1.60653 18.7509 1.6018 18.7922C1.59708 18.8335 1.60064 18.8754 1.61227 18.9153C1.63335 18.9938 1.68411 19.0609 1.75363 19.102C1.82316 19.1431 1.90589 19.1551 1.98406 19.1353L1.97124 19.0835ZM0.753299 24.8668C6.35583 23.573 20.266 19.6916 25.6634 17.6086C26.0324 17.4686 26.3326 17.1888 26.5003 16.8287C26.6679 16.4687 26.6896 16.0568 26.5608 15.6808C26.2788 14.9046 24.7275 14.9304 24.7275 14.9304C19.2916 16.7159 6.00968 22.4215 0.612274 24.3105C0.572357 24.3209 0.534928 24.3394 0.502212 24.3647C0.469496 24.3901 0.44216 24.4218 0.421829 24.458C0.401498 24.4942 0.388586 24.5341 0.383862 24.5755C0.379137 24.6168 0.382696 24.6587 0.394327 24.6986C0.404624 24.7373 0.422533 24.7734 0.446983 24.8049C0.471433 24.8364 0.501922 24.8626 0.536628 24.8819C0.571334 24.9012 0.609544 24.9133 0.648975 24.9174C0.688406 24.9214 0.728248 24.9175 0.766119 24.9056L0.753299 24.8668ZM58.0735 15.849C53.4453 17.8544 50.0992 21.71 46.5992 25.2032C46.2354 25.6888 46.0776 26.3003 46.1605 26.9032C46.2435 27.5062 46.5604 28.0512 47.0415 28.4183C47.5226 28.7855 48.1286 28.9447 48.726 28.861C49.3235 28.7773 49.8635 28.4575 50.2274 27.972L50.471 27.6356C53.2402 23.6895 55.1889 20.1186 59.1376 17.2852C59.2492 17.2069 59.3438 17.1064 59.4157 16.99C59.4875 16.8736 59.5351 16.7436 59.5555 16.608C59.5759 16.4723 59.5687 16.3339 59.5343 16.2012C59.4999 16.0685 59.4391 15.9443 59.3555 15.8361C59.0478 15.3833 58.0735 15.849 58.0735 15.849Z" fill="#007DC3"/>
<path d="M49.5993 26.7558C52.3685 32.3709 55.3685 37.8307 58.2916 43.3552C58.3286 43.499 58.3938 43.6338 58.4833 43.7517C58.5728 43.8696 58.6847 43.9682 58.8126 44.0418C58.9404 44.1153 59.0815 44.1623 59.2277 44.1799C59.3738 44.1976 59.5219 44.1855 59.6634 44.1445C59.942 44.0593 60.1877 43.8893 60.3667 43.6576C60.5458 43.426 60.6494 43.1441 60.6633 42.8507V42.6695C60.7038 42.5527 60.7144 42.4274 60.6942 42.3053C60.674 42.1832 60.6238 42.0682 60.548 41.9709C57.596 36.5097 54.2404 31.2809 50.5096 26.3288C50.4577 26.2449 50.3894 26.1726 50.3089 26.1163C50.2283 26.06 50.1372 26.021 50.0411 26.0016C49.945 25.9822 49.846 25.9829 49.7502 26.0036C49.6544 26.0242 49.5638 26.0645 49.4839 26.1218C49.0993 26.3547 49.5993 26.7558 49.5993 26.7558ZM57.5993 42.993C52.3557 39.2539 39.9583 35.7736 39.8301 35.9159C39.4385 35.7028 38.9794 35.6539 38.5523 35.7798C38.1252 35.9057 37.7645 36.1963 37.5481 36.5887C37.314 37.0087 37.2346 37.4987 37.3237 37.9722C37.4128 38.4457 37.6649 38.8721 38.0353 39.1763L38.4071 39.5644C38.6122 39.7455 38.8173 40.0302 39.0353 40.0431C45.0737 40.703 50.8429 41.4145 56.6121 43.9245C56.7463 43.9709 56.8894 43.9845 57.0298 43.9643C57.1702 43.944 57.3038 43.8905 57.4198 43.8081C57.548 43.6916 57.7275 43.6399 57.8044 43.4458C57.8184 43.4051 57.8242 43.3619 57.8214 43.3189C57.8186 43.2758 57.8074 43.2338 57.7882 43.1952C57.7691 43.1566 57.7426 43.1223 57.7101 43.0942C57.6777 43.0662 57.64 43.0449 57.5993 43.0318V42.993Z" fill="#007DC3"/>
<path d="M40.1247 37.5847C33.3352 41.1237 27.0588 45.5858 21.471 50.8462C21.0992 51.1826 21.0735 51.7389 21.1376 52.6575C21.1079 53.1271 21.213 53.5954 21.4404 54.0062C21.6678 54.4169 22.0078 54.7528 22.4197 54.9734C23.3428 55.3357 23.7787 55.3357 24.1248 54.9734L24.471 54.7793C24.7337 54.6118 24.9711 54.407 25.1761 54.1713C29.894 47.9222 35.7401 43.9373 40.5606 38.3351C40.6743 38.2148 40.7376 38.055 40.7376 37.8888C40.7376 37.7226 40.6743 37.5627 40.5606 37.4424C40.3298 37.2095 40.1247 37.5847 40.1247 37.5847Z" fill="#007DC3"/>
<path d="M25.4325 51.558C26.6924 45.7545 28.4072 40.0611 30.5607 34.5316C30.6559 34.3065 30.7062 34.0647 30.7088 33.8199C30.7113 33.5752 30.666 33.3323 30.5756 33.1052C30.4851 32.8782 30.3511 32.6713 30.1814 32.4965C30.0117 32.3216 29.8095 32.1823 29.5863 32.0863C29.2716 31.9121 28.9077 31.8506 28.5539 31.9116C28.2 31.9727 27.8771 32.1529 27.6376 32.4227L27.2658 33.199C26.1109 39.2577 25.3062 45.3791 24.8556 51.5322C24.8521 51.5747 24.857 51.6174 24.8699 51.658C24.8828 51.6986 24.9036 51.7363 24.931 51.7687C24.9584 51.8012 24.9919 51.8279 25.0296 51.8472C25.0672 51.8666 25.1083 51.8782 25.1505 51.8815C25.1925 51.8835 25.2345 51.8764 25.2736 51.8607C25.3127 51.8449 25.348 51.821 25.3771 51.7903C25.4063 51.7597 25.4286 51.7231 25.4426 51.683C25.4566 51.643 25.4619 51.6003 25.4582 51.558H25.4325Z" fill="#007DC3"/>
<path d="M28.587 33.7035C25.1126 30.7795 20.7665 29.6927 16.8178 27.2345C15.9111 26.7583 15.1156 26.0922 14.4845 25.2808C14.2635 25.1006 14.0094 24.9663 13.7367 24.8856C13.4641 24.805 13.1783 24.7795 12.8959 24.8108C12.6135 24.8421 12.34 24.9294 12.0911 25.0678C11.8423 25.2062 11.6231 25.3929 11.4461 25.6172C11.2598 25.8077 11.1146 26.0349 11.0195 26.2847C10.9244 26.5345 10.8815 26.8014 10.8936 27.0687C10.9056 27.336 10.9723 27.5979 11.0894 27.8379C11.2066 28.078 11.3716 28.291 11.5743 28.4636L11.6768 28.58C16.9204 31.1676 22.6768 32.3709 28.1126 34.4409C28.4844 34.5962 29.3947 34.2986 29.0485 34.0528L28.587 33.7035Z" fill="#007DC3"/>
<path d="M13.8298 26.5618C20.1631 25.7984 25.5348 23.2238 31.445 21.2701C31.7719 21.0289 32.0061 20.6811 32.108 20.2857C32.21 19.8902 32.1734 19.4713 32.0045 19.1C31.8356 18.7286 31.5447 18.4275 31.1811 18.2477C30.8175 18.0679 30.4035 18.0204 30.0091 18.1133C24.6866 21.1826 19.1102 23.7799 13.3426 25.8761C13.2759 25.8815 13.2112 25.9014 13.1529 25.9346C13.0947 25.9677 13.0442 26.0132 13.0051 26.068C12.966 26.1227 12.9391 26.1854 12.9264 26.2517C12.9137 26.3179 12.9154 26.3862 12.9314 26.4518C12.9474 26.5173 12.9773 26.5785 13.0191 26.6313C13.0609 26.684 13.1135 26.7269 13.1733 26.757C13.2332 26.7872 13.2988 26.8039 13.3656 26.8059C13.4325 26.8079 13.499 26.7953 13.5605 26.7688L13.8298 26.5618Z" fill="#007DC3"/>
<path d="M128.842 28.8129C128.842 29.4992 128.572 30.1574 128.091 30.6427C127.61 31.1279 126.958 31.4005 126.278 31.4005C125.598 31.4005 124.946 31.1279 124.465 30.6427C123.984 30.1574 123.714 29.4992 123.714 28.8129C123.714 28.1267 123.984 27.4685 124.465 26.9832C124.946 26.498 125.598 26.2253 126.278 26.2253C126.958 26.2253 127.61 26.498 128.091 26.9832C128.572 27.4685 128.842 28.1267 128.842 28.8129Z" fill="black"/>
</g>
<defs>
<clipPath id="clip0_68_806">
<rect width="155.127" height="72" fill="white" transform="translate(0.381836)"/>
</clipPath>
</defs>
</svg>
