<svg width="123" height="70" viewBox="0 0 123 70" fill="none" xmlns="http://www.w3.org/2000/svg">
<g clip-path="url(#clip0_68_819)">
<path d="M61.9496 1.23866H62.8699L69.6357 11.1152V1.23866H70.5219V12.6782H69.6526L62.8186 2.73293V12.6782H61.9496V1.23866ZM77.9696 7.57678C77.9526 6.34009 77.3221 5.06902 75.7712 5.06902C74.3568 5.06902 73.5386 6.16825 73.3001 7.57678H77.9696ZM72.3114 8.50434C72.3114 6.18561 73.6407 4.29611 75.8053 4.29611C77.8844 4.29611 79.0263 5.9794 78.8557 8.31532H73.2487V8.50434C73.266 10.3767 74.0499 12.0943 75.9928 12.0943C77.0323 12.0943 77.9014 11.6649 78.3446 11.3212L78.7195 12.0256C78.2082 12.4034 77.2708 12.8672 75.9585 12.8672C73.4704 12.8672 72.3114 10.8576 72.3114 8.50434ZM79.8096 4.48496H80.764L82.7412 11.3042L84.8713 4.48496H85.7405L87.8707 11.3212L89.8646 4.48496H90.751L88.2968 12.6782H87.4788L85.2803 5.77338L83.0818 12.6782H82.2638L79.8096 4.48496ZM98.5897 8.36688L94.7894 1.23866H95.846L99.0669 7.42213H99.101L102.322 1.23866H103.276L99.51 8.36688V12.6782H98.5897V8.36688ZM108.951 8.59026C108.951 6.75232 107.98 5.06902 106.122 5.06902C104.282 5.06902 103.446 6.71795 103.446 8.55589C103.446 10.411 104.35 12.0943 106.19 12.0943C108.048 12.0943 108.951 10.4452 108.951 8.59026ZM102.509 8.59026C102.509 6.52893 103.6 4.29611 106.156 4.29611C108.713 4.29611 109.888 6.51192 109.888 8.55589C109.888 10.6171 108.73 12.8672 106.173 12.8672C103.617 12.8672 102.509 10.6514 102.509 8.59026ZM111.591 4.48496H112.477V5.91067C112.784 5.30942 113.516 4.29611 114.658 4.29611C115.033 4.29611 115.306 4.38203 115.442 4.43358L115.221 5.27505C115.084 5.22351 114.897 5.15477 114.556 5.15477C113.431 5.15477 112.698 6.49474 112.477 6.9757V12.6782H111.591V4.48496ZM118.049 8.07493L121.611 4.48496H122.719L119.123 8.07493L122.906 12.6782H121.798L118.049 8.07493ZM117.078 0.311092H117.964V12.6782H117.078V0.311092ZM64.3186 24.2212C66.4828 24.2212 67.369 23.2249 67.369 21.7133C67.369 20.2876 66.5169 19.2571 64.3525 19.2571H62.904V24.2212H64.3186ZM61.9667 18.4498H64.4378C66.8238 18.4498 68.3234 19.6351 68.3234 21.6791C68.3234 23.7401 66.9089 25.0285 64.3355 25.0285H62.904V29.8893H61.9667V18.4498ZM69.7545 27.4847V21.6961H70.6409V27.2957C70.6409 28.4982 71.0668 29.2711 72.3109 29.2711C73.521 29.2711 74.5262 28.1203 74.7992 27.6393V21.6961H75.6852V28.3092C75.6852 28.9618 75.7534 29.5802 75.8387 29.8893H74.9354C74.8844 29.6146 74.8161 28.9962 74.8161 28.5496C74.4241 29.168 73.5038 30.0784 72.1235 30.0784C70.4193 30.0784 69.7545 28.9618 69.7545 27.4847ZM83.4225 25.8014C83.4225 24.015 82.7407 22.3145 80.7638 22.3145C80.0651 22.3145 79.247 22.7268 78.7868 23.2421V28.9791C79.1617 29.168 79.724 29.3055 80.3719 29.3055C82.4338 29.3055 83.4225 27.5019 83.4225 25.8014ZM77.9008 29.4601V17.5222H78.7868V22.452C79.2811 21.8851 80.0822 21.5072 80.9173 21.5072C83.2348 21.5072 84.3596 23.3794 84.3596 25.767C84.3596 28.0688 82.8257 30.0784 80.3376 30.0784C79.3663 30.0784 78.463 29.838 77.9008 29.4601ZM86.1827 17.5222H87.0691V29.8893H86.1827V17.5222ZM89.7103 21.6961H90.6134V29.8893H89.7103V21.6961ZM89.4887 19.2743C89.4887 18.8792 89.7956 18.5871 90.1536 18.5871C90.5282 18.5871 90.8351 18.8792 90.8351 19.2743C90.8351 19.6693 90.5282 19.9786 90.1536 19.9786C89.7956 19.9786 89.4887 19.6693 89.4887 19.2743ZM92.3175 25.7842C92.3175 23.1905 93.8003 21.5072 95.8965 21.5072C97.1066 21.5072 97.8735 21.971 98.3164 22.3661L97.8562 23.0187C97.3963 22.6237 96.7827 22.2802 95.8796 22.2802C94.0729 22.2802 93.2549 23.8604 93.2549 25.7498C93.2549 27.5706 94.056 29.3055 95.8625 29.3055C96.7999 29.3055 97.5836 28.8932 97.9417 28.5669L98.3336 29.2367C97.8905 29.6318 97.0384 30.0784 95.8112 30.0784C93.4765 30.0784 92.3175 27.9828 92.3175 25.7842ZM61.7109 47.1008V35.6611H64.1309V45.1424H68.3575V47.1008H61.7109ZM70.1541 47.1008V38.7354H72.4376V47.1008H70.1541ZM71.296 37.6537C70.4949 37.6537 69.9154 37.0181 69.9154 36.2794C69.9154 35.558 70.4949 34.9396 71.296 34.9396C72.097 34.9396 72.6934 35.558 72.6934 36.2794C72.6934 37.0181 72.097 37.6537 71.296 37.6537ZM76.6982 45.3314C76.8515 45.383 77.2094 45.5206 77.84 45.5206C79.1011 45.5206 79.8508 44.5759 79.8508 42.8582C79.8508 41.295 79.3228 40.3333 78.0956 40.3333C77.38 40.3333 76.8344 40.7969 76.6982 40.9687V45.3314ZM76.6982 34.7335V39.3885C77.0731 39.0103 77.8059 38.5295 78.726 38.5295C80.8055 38.5295 82.254 39.9723 82.254 42.8582C82.254 45.7093 80.3452 47.3069 77.84 47.3069C75.9653 47.3069 74.8235 46.8259 74.4315 46.6369V34.7335H76.6982ZM88.6275 40.7453C88.4911 40.6596 88.2354 40.5563 87.758 40.5563C86.7528 40.5563 86.1562 41.4497 85.9516 41.8274V47.1008H83.685V38.7354H85.9516V39.8693C86.3095 39.2509 86.9913 38.5295 88.0478 38.5295C88.6614 38.5295 88.9852 38.6498 89.1727 38.7531L88.6275 40.7453ZM94.3705 43.3904H94.0806C92.7515 43.3904 91.8312 43.7858 91.8312 44.7647C91.8312 45.383 92.3256 45.6406 92.8366 45.6406C93.6548 45.6406 94.132 45.1596 94.3705 44.9022V43.3904ZM94.6262 47.1008C94.5578 46.8945 94.507 46.4654 94.4897 46.2075C94.1149 46.6541 93.3308 47.3069 92.1549 47.3069C90.7404 47.3069 89.6497 46.4482 89.6497 44.9536C89.6497 42.7721 91.8823 41.982 94.0806 41.982H94.3705V41.5011C94.3705 40.7795 94.0806 40.3333 93.0241 40.3333C91.9505 40.3333 91.2176 40.8998 90.9109 41.1232L89.9224 39.732C90.4166 39.2854 91.5074 38.5295 93.2798 38.5295C95.5465 38.5295 96.6201 39.4057 96.6201 41.6214V44.6273C96.6201 45.7609 96.7393 46.568 96.8586 47.1008H94.6262ZM103.386 40.7453C103.249 40.6596 102.994 40.5563 102.517 40.5563C101.511 40.5563 100.914 41.4497 100.71 41.8274V47.1008H98.4432V38.7354H100.71V39.8693C101.068 39.2509 101.75 38.5295 102.806 38.5295C103.419 38.5295 103.743 38.6498 103.931 38.7531L103.386 40.7453ZM104.749 38.7354H107.169L109.009 44.2494H109.095L110.782 38.7354H113.117L109.691 47.9937C108.958 49.9691 108.089 51.1199 105.823 51.1199C105.124 51.1199 104.715 51.0171 104.544 50.9654L104.868 49.1618C104.987 49.1962 105.175 49.2476 105.669 49.2476C106.828 49.2476 107.237 48.681 107.561 47.7877L107.867 46.929L104.749 38.7354Z" fill="black"/>
<path d="M31.4104 35.5156C31.3303 35.9357 31.0763 36.7469 30.67 36.7996C30.2606 36.8523 29.9657 36.41 29.6722 36.2443C29.1769 35.9658 28.4766 35.7836 27.8294 35.5677C27.271 35.3812 26.5055 35.1503 26.281 34.6134C25.9445 33.8139 26.7305 33.4357 27.2963 33.2601C27.8294 33.0951 28.2195 33.033 28.9144 33.0004C29.9367 32.9508 30.9127 33.0984 31.2559 33.746C31.4629 34.1362 31.526 34.9101 31.4104 35.5156ZM40.7943 36.0309C39.0137 35.1527 36.7013 34.7127 35.0187 33.7707C33.6865 33.0262 32.6651 31.7965 31.2314 31.1338C29.7689 30.4121 27.5676 29.6867 26.7261 29.4776C23.7515 28.7401 21.2528 29.7005 20.3862 30.3917C18.7681 31.6805 17.5039 33.7753 17.9972 36.789C18.2061 38.063 18.5952 39.1347 19.2135 40.016C21.7226 43.5877 26.4187 44.748 30.1389 47.0013C30.2701 47.0913 30.407 47.0673 30.4907 46.9524C31.1156 46.0262 31.6236 45.2807 32.676 44.8396C33.7446 44.3899 35.4262 44.5427 36.876 44.6138C38.3738 44.6868 39.9906 44.5451 40.5338 43.7645C41.1828 42.8328 41.145 40.9556 40.1543 40.3821C39.6228 40.0733 38.8302 40.0592 38.2521 39.7905C37.8302 39.594 37.505 39.2264 37.2724 38.7151C37.0772 38.2874 36.8959 37.5851 37.1488 37.1269C37.3816 36.7048 37.9685 36.8243 38.44 36.9347C39.3743 37.1509 40.9355 37.3801 41.8344 36.9827C42.0993 36.8464 41.1525 36.2074 40.7943 36.0309ZM3.16584 38.5528C3.21957 38.2471 3.24305 38.162 3.42569 37.9216C3.71517 37.4854 7.22692 33.5138 12.6699 32.5514C13.3862 32.4479 13.9023 32.498 14.0197 32.7873C14.2254 33.2947 13.8086 33.587 13.307 33.8796C4.57731 39.1381 5.19614 46.9553 5.11254 50.1531C5.13885 51.4613 4.20159 51.6993 3.96758 51.0831C2.9431 48.2664 2.08167 43.8514 3.16584 38.5528ZM9.07279 27.0365C9.25169 26.8453 9.36833 26.7575 9.6336 26.6821C12.9864 25.8427 16.3496 26.3771 18.7716 27.4656C19.3153 27.7082 19.5603 28.052 19.2032 28.2829C18.7492 28.5488 17.3731 29.4509 16.6125 30.1653C16.3913 30.3573 15.9971 30.3674 15.7645 30.3363C12.9252 29.9591 11.4506 29.7362 7.18234 31.3669C6.52744 31.6444 5.93835 31.2669 6.23975 30.748C6.80807 29.7221 8.12968 28.0058 9.07279 27.0365ZM14.5895 23.6604C13.8555 23.5762 13.8451 23.035 14.1555 22.8242C14.9531 22.2611 16.2472 21.581 17.549 21.0608C17.9387 20.9051 18.14 20.8646 18.497 20.9007C19.4563 20.9975 21.0449 21.6484 22.8676 22.9593C25.0536 24.5313 26.9982 27.5178 25.6977 27.2761C24.8752 27.1325 25.2334 27.172 24.2692 27.0653C23.284 26.9773 22.6375 27.0792 22.1834 27.0326C21.9856 27.0163 21.8298 26.8836 21.6905 26.7686C19.8455 25.1011 17.7142 24.0429 14.5895 23.6604Z" fill="white"/>
<path d="M49.7111 49.7635C49.5142 50.3827 49.2804 51.1593 48.7794 50.799C47.8487 50.1009 45.7798 48.7589 43.7763 48.0141C43.6688 47.9899 43.6809 47.8393 43.7189 47.7544C43.8609 47.4373 43.9245 47.144 43.986 46.7687C44.043 46.4175 44.2944 46.1829 44.4672 45.9014C44.9807 45.0747 45.2589 43.6337 45.371 42.7347C45.4561 41.9087 45.4054 40.9883 45.2278 40.2211C45.152 39.8935 44.9176 39.471 44.9238 39.1086C44.9299 38.7541 45.0953 38.3827 45.1292 37.9642C45.2283 36.7531 43.712 35.7434 42.8843 35.3543C41.0069 34.4708 39.0115 33.6806 36.9837 32.6023C35.839 31.9937 34.9204 30.6588 34.002 29.9424C33.0742 29.2209 30.0925 28.0289 28.9008 27.7116C28.6317 27.6262 28.5363 27.5136 28.4907 27.2977C27.9995 24.9347 26.6159 22.3318 24.0313 20.319C23.1944 19.6635 24.1329 19.2906 25.2855 19.2339C43.4547 18.6061 53.9103 35.4586 49.7111 49.7635Z" fill="white"/>
<path d="M42.3329 41.6637C42.3199 41.5704 42.28 41.2548 42.2804 41.1897C42.2814 41.0231 42.621 40.7965 42.7794 40.6697C43.0196 40.477 43.2976 40.2653 43.4797 40.1728C43.5456 40.1311 43.5893 40.2276 43.5982 40.2466C44.268 41.2713 44.0169 43.8041 43.5329 45.0085C43.4769 45.131 43.3744 45.1786 43.3327 45.0889C43.0857 44.5455 42.7193 44.0564 42.2984 43.7879C42.2208 43.7272 42.2149 43.6006 42.2208 43.5771C42.3562 43.0048 42.4266 42.37 42.3329 41.6637ZM34.0496 47.8977C34.1939 47.4778 34.3619 47.2304 34.6856 47.0262C35.2952 46.6409 36.3082 46.6242 37.2859 46.5568C38.2332 46.4924 39.2453 46.4366 39.9193 46.1227C40.3272 45.9336 40.7352 45.3952 41.3655 45.6694C41.6639 45.7991 41.8263 46.0747 41.9154 46.3488C42.0154 46.6542 42.0881 46.9626 42.0571 47.3719C41.9664 48.5533 41.0144 49.1303 40.843 50.2346C40.8272 50.4052 40.7983 50.6523 40.7011 50.7504C39.9742 51.4961 38.5367 51.3393 37.2371 51.2074C36.7719 51.1608 36.312 51.148 35.9974 50.997C35.7704 50.8899 35.5666 50.6717 35.3779 50.4952C34.9621 50.1068 34.727 49.821 34.3102 49.3499C34.1688 49.1903 33.8484 48.9014 33.8273 48.726C33.8094 48.5578 33.988 48.0748 34.0496 47.8977ZM11.2902 61.8213C10.8132 61.4274 10.608 61.0952 10.3337 60.6287C8.10851 57.0438 6.86135 44.3483 9.72881 40.0423C10.6413 38.5336 11.6081 39.2291 11.2868 40.3953C10.7376 43.0133 11.0742 44.4804 12.3373 47.3211C14.3223 51.5426 20.4492 57.4038 22.0712 59.5296C24.8517 63.1752 25.7771 65.8314 25.7644 66.5469C25.7494 67.0958 25.6449 67.4458 24.6905 67.3645C19.6561 66.9624 14.7893 64.8587 11.2902 61.8213Z" fill="white"/>
<path d="M14.1686 44.7007C12.633 40.9304 13.6358 37.5354 14.314 36.2477C14.656 35.5979 14.9903 35.1735 15.4267 35.2956C15.9016 35.4292 16.0113 35.919 16.0769 36.8272C16.5601 44.3637 21.0831 46.9012 26.7641 49.5621C31.246 51.8713 36.3454 54.5115 40.6191 60.9067C41.2659 61.8299 41.3593 62.3901 40.629 62.9191C38.0234 64.7119 35.6629 65.9615 32.2094 66.7732C31.6894 66.8959 31.1533 66.8039 30.6928 65.6066C25.8951 53.1477 17.8401 53.7092 14.1686 44.7007ZM43.8847 60.0183C43.1543 60.7541 42.7401 60.1772 42.5014 59.7048C41.4785 57.5124 40.4793 55.6775 38.8681 53.9003C38.5889 53.6151 38.804 53.2149 39.2143 53.2555C39.7388 53.2979 40.0825 53.269 40.6594 53.019C41.1474 52.8077 41.7067 52.118 41.9855 51.1273C42.1888 50.4046 42.1982 50.1919 42.6376 50.1469C42.7468 50.1365 42.9467 50.1642 43.0679 50.1994C43.6027 50.3529 44.1769 50.7932 44.5966 51.1176C45.6729 51.9463 47.2785 53.7752 47.5596 54.367C47.738 54.7437 47.5672 54.9994 47.4666 55.2145C46.9034 56.3751 45.1273 58.7801 43.8847 60.0183Z" fill="white"/>
<path d="M43.8847 60.0192C43.1543 60.755 42.7401 60.1781 42.5014 59.7057C41.4784 57.5133 40.4793 55.6784 38.8681 53.9012C38.5889 53.6161 38.8039 53.2156 39.2143 53.2564C39.7388 53.2988 40.0824 53.2699 40.6594 53.02C41.1474 52.8086 41.7067 52.1189 41.9855 51.1282C42.1888 50.4055 42.1982 50.1929 42.6376 50.1478C42.7468 50.1374 42.9467 50.1651 43.0679 50.2003C43.6026 50.3538 44.1769 50.7941 44.5966 51.1185C45.6728 51.9471 47.2785 53.776 47.5595 54.3679C47.738 54.7446 47.5671 55.0003 47.4665 55.2153C46.9034 56.376 45.1273 58.7808 43.8847 60.0192ZM14.1718 44.6969C12.6362 40.9267 13.6388 37.5317 14.3171 36.244C14.6592 35.5943 14.9934 35.1698 15.4299 35.292C15.9047 35.4255 16.0145 35.9153 16.08 36.8235C16.5632 44.36 21.0861 46.8976 26.7671 49.5583C31.2492 51.8676 36.3485 54.5076 40.6223 60.9029C41.2691 61.8262 41.3625 62.3864 40.6321 62.9152C38.0264 64.7081 35.6661 65.9578 32.2125 66.7694C31.6926 66.892 31.1563 66.8 30.6958 65.6028C25.8981 53.144 17.8431 53.7054 14.1718 44.6969ZM3.17018 38.5512C3.22406 38.2455 3.24754 38.1604 3.43018 37.92C3.71964 37.4839 7.23127 33.5122 12.6744 32.5499C13.3906 32.4466 13.9067 32.4965 14.0241 32.7859C14.2298 33.2932 13.813 33.5857 13.3116 33.8781C4.58173 39.1366 5.20063 46.9539 5.11702 50.1517C5.14332 51.4597 4.20615 51.6978 3.97199 51.0816C2.94758 48.2649 2.08609 43.8498 3.17018 38.5512ZM9.07265 27.0303C9.25155 26.8391 9.36819 26.7513 9.63347 26.6759C12.9862 25.8367 16.3495 26.371 18.7715 27.4595C19.3152 27.7022 19.5601 28.046 19.2031 28.2767C18.749 28.5426 17.3729 29.4447 16.6123 30.159C16.3912 30.3511 15.997 30.3612 15.7644 30.33C12.9251 29.9528 11.4505 29.73 7.1822 31.3607C6.5273 31.6383 5.93821 31.2607 6.23961 30.7419C6.80793 29.7158 8.12954 27.9997 9.07265 27.0303ZM34.0498 47.8913C34.1941 47.4714 34.3621 47.224 34.6858 47.0197C35.2954 46.6345 36.3084 46.6179 37.2861 46.5505C38.2334 46.486 39.2455 46.4302 39.9195 46.1163C40.3274 45.9273 40.7354 45.3888 41.3657 45.6631C41.6641 45.7927 41.8265 46.0683 41.9156 46.3424C42.0156 46.6478 42.0883 46.9561 42.0573 47.3656C41.9666 48.547 41.0146 49.1239 40.8432 50.2282C40.8274 50.3989 40.7985 50.6459 40.7013 50.7441C39.9744 51.4898 38.5369 51.3329 37.2373 51.2011C36.7721 51.1544 36.3122 51.1417 35.9976 50.9906C35.7706 50.8834 35.5668 50.6653 35.3781 50.4889C34.9623 50.1005 34.7272 49.8147 34.3104 49.3436C34.169 49.184 33.8486 48.8951 33.8275 48.7197C33.8096 48.5514 33.9882 48.0684 34.0498 47.8913ZM14.5893 23.6544C13.8554 23.57 13.8449 23.0289 14.1553 22.8182C14.9529 22.2548 16.247 21.5748 17.5488 21.0546C17.9386 20.8991 18.1398 20.8584 18.4968 20.8946C19.4561 20.9914 21.0447 21.6424 22.8675 22.9531C25.0535 24.5251 26.9981 27.5116 25.6976 27.2699C24.875 27.1263 25.2332 27.1659 24.269 27.0592C23.2839 26.9711 22.6374 27.073 22.1833 27.0264C21.9855 27.0102 21.8297 26.8774 21.6904 26.7625C19.8454 25.095 17.7141 24.0368 14.5893 23.6544ZM20.3861 30.3855C21.2527 29.6942 23.7513 28.7338 26.726 29.4714C27.5674 29.6805 29.7688 30.4059 31.2313 31.1278C32.6649 31.7903 33.6864 33.0202 35.0185 33.7647C36.7012 34.7065 39.0136 35.1465 40.7941 36.0247C41.1523 36.2011 42.0991 36.84 41.8343 36.9764C40.9354 37.3739 39.3741 37.1447 38.4398 36.9285C37.9684 36.818 37.3814 36.6984 37.1487 37.1207C36.8958 37.5789 37.0771 38.2812 37.2722 38.7089C37.5048 39.2201 37.8301 39.5878 38.2519 39.7843C38.8301 40.0529 39.6226 40.0671 40.1542 40.3759C41.1449 40.9494 41.1827 42.8266 40.5337 43.7583C39.9904 44.5387 38.3737 44.6804 36.8759 44.6076C35.426 44.5365 33.7444 44.3837 32.6759 44.8333C31.6234 45.2745 31.1155 46.02 30.4906 46.9462C30.4069 47.0611 30.27 47.085 30.1388 46.995C26.4186 44.7418 21.7225 43.5813 19.2134 40.0097C18.5951 39.1284 18.206 38.0568 17.997 36.7828C17.5038 33.7691 18.7679 31.6742 20.3861 30.3855ZM42.3331 41.6573C42.3201 41.5641 42.2803 41.2485 42.2806 41.1833C42.2816 41.0167 42.6212 40.7901 42.7796 40.6634C43.0198 40.4706 43.2978 40.259 43.4799 40.1664C43.5458 40.1247 43.5895 40.2212 43.5984 40.2403C44.2682 41.265 44.0171 43.7977 43.5331 45.0021C43.4771 45.1246 43.3746 45.1722 43.3329 45.0826C43.0859 44.5392 42.7195 44.05 42.2986 43.7816C42.221 43.7208 42.2151 43.5943 42.221 43.5708C42.3564 42.9985 42.4268 42.3637 42.3331 41.6573ZM49.7106 49.7573C49.5138 50.3764 49.28 51.1529 48.779 50.7927C47.8482 50.0947 45.7794 48.7527 43.7758 48.0078C43.6683 47.9835 43.6805 47.8331 43.7184 47.7482C43.8604 47.4309 43.924 47.1378 43.9855 46.7625C44.0425 46.4113 44.2939 46.1767 44.4667 45.8951C44.9802 45.0685 45.2584 43.6274 45.3705 42.7285C45.4556 41.9025 45.4049 40.982 45.2274 40.2149C45.1516 39.8872 44.9171 39.4648 44.9234 39.1024C44.9294 38.7479 45.0949 38.3765 45.1288 37.9579C45.2279 36.7469 43.7115 35.7374 42.8839 35.3481C41.0065 34.4646 39.0111 33.6745 36.9832 32.5962C35.8386 31.9876 34.92 30.6526 34.0015 29.9362C33.0738 29.2148 30.092 28.0227 28.9003 27.7056C28.6312 27.6202 28.5359 27.5074 28.4903 27.2915C27.9991 24.9287 26.6154 22.3256 24.0309 20.3128C23.1939 19.6573 24.1325 19.2843 25.2851 19.2277C43.4543 18.6001 53.9099 35.4526 49.7106 49.7573ZM11.2904 61.815C10.8134 61.4211 10.6082 61.0889 10.3339 60.6223C8.10871 57.0374 6.86155 44.342 9.72901 40.0359C10.6415 38.527 11.6083 39.2227 11.287 40.389C10.7378 43.007 11.0744 44.474 12.3375 47.3147C14.3225 51.5362 20.4494 57.3974 22.0714 59.5233C24.8519 63.1688 25.7773 65.825 25.7646 66.5405C25.7496 67.0894 25.6451 67.4394 24.6907 67.358C19.6563 66.956 14.7894 64.8524 11.2904 61.815ZM26.5756 16.8688C12.2129 16.8688 0.509766 28.6393 0.509766 43.2766C0.509766 57.9135 12.2841 69.6909 26.5918 69.6909C41.1147 69.6909 52.8677 57.9196 52.8677 43.2826C52.8677 28.6447 41.0978 16.8688 26.5756 16.8688Z" fill="black"/>
<path d="M27.8335 35.5677C28.4807 35.7836 29.1809 35.9658 29.6762 36.2443C29.9697 36.41 30.2646 36.8524 30.6741 36.7996C31.0803 36.7469 31.3342 35.9357 31.4143 35.5156C31.53 34.9101 31.4668 34.1362 31.2599 33.7461C30.9169 33.0984 29.9407 32.9509 28.9184 33.0004C28.2235 33.033 27.8335 33.0951 27.3003 33.2602C26.7345 33.4358 25.9487 33.814 26.2849 34.6134C26.5094 35.1503 27.275 35.3812 27.8335 35.5677Z" fill="black"/>
</g>
<defs>
<clipPath id="clip0_68_819">
<rect width="122.4" height="69.3818" fill="white" transform="translate(0.509766 0.309082)"/>
</clipPath>
</defs>
</svg>
