<svg width="180" height="56" viewBox="0 0 180 56" fill="none" xmlns="http://www.w3.org/2000/svg">
<g clip-path="url(#clip0_68_778)">
<path d="M96.9794 24.5031L94.498 16.053H95.9943L97.7976 22.6874L99.8562 16.053H100.877L102.944 22.6874L104.74 16.053H106.244L103.754 24.5031H102.25L100.367 18.6543L98.4842 24.5031H96.9794Z" fill="#6B4290"/>
<path d="M106.42 24.5031L109.816 16.053H111.065L114.462 24.5031H113.01L112.13 22.3032H108.672L107.793 24.5031H106.42ZM109.174 21.1248H111.717L110.441 17.8512L109.174 21.1248Z" fill="#6B4290"/>
<path d="M118.21 24.669C117.832 24.6739 117.455 24.6208 117.093 24.5119C116.785 24.4236 116.489 24.2975 116.213 24.1365C115.987 24.0036 115.775 23.8486 115.58 23.6738C115.404 23.5167 115.271 23.3945 115.184 23.2985L115.896 22.2073C115.993 22.3121 116.116 22.4255 116.257 22.5652C116.418 22.7113 116.592 22.8428 116.776 22.958C116.981 23.0961 117.203 23.2075 117.436 23.2898C117.694 23.3861 117.969 23.4335 118.246 23.4294C118.501 23.4302 118.755 23.3828 118.993 23.2898C119.204 23.2005 119.387 23.0556 119.521 22.8707C119.657 22.6698 119.724 22.4314 119.714 22.1899C119.72 21.9794 119.668 21.7716 119.565 21.5875C119.461 21.4139 119.32 21.2649 119.151 21.151C118.942 21.0138 118.721 20.8941 118.492 20.7931L117.656 20.4352C117.431 20.3434 117.213 20.2354 117.005 20.1122C116.795 19.9895 116.6 19.843 116.424 19.6757C116.247 19.5064 116.103 19.3049 116.002 19.0821C115.895 18.8372 115.844 18.5719 115.853 18.3052C115.853 17.9928 115.915 17.6835 116.038 17.3956C116.16 17.1078 116.34 16.8471 116.565 16.6292C116.8 16.3968 117.082 16.2155 117.392 16.0966C117.73 15.9607 118.092 15.8924 118.456 15.8959C118.772 15.8976 119.087 15.9446 119.389 16.0356C119.678 16.1212 119.956 16.2414 120.216 16.3935C120.443 16.521 120.65 16.6797 120.832 16.8649L120.243 17.8862C120.104 17.7414 119.947 17.6152 119.777 17.5108C119.591 17.3873 119.39 17.2903 119.178 17.2228C118.953 17.152 118.719 17.1166 118.483 17.118C118.234 17.1087 117.988 17.166 117.77 17.2838C117.587 17.3814 117.435 17.5262 117.327 17.7029C117.221 17.8796 117.164 18.0817 117.163 18.2877C117.158 18.4428 117.194 18.5965 117.269 18.7329C117.348 18.8608 117.452 18.9708 117.577 19.056C117.72 19.1481 117.87 19.2298 118.026 19.3004L118.571 19.5186C118.941 19.667 119.292 19.8241 119.609 19.9725C119.905 20.1142 120.182 20.29 120.436 20.4963C120.666 20.688 120.852 20.9261 120.982 21.1947C121.118 21.4962 121.184 21.8244 121.175 22.1549C121.191 22.6364 121.059 23.1114 120.797 23.5167C120.537 23.8993 120.175 24.2017 119.75 24.3897C119.264 24.5968 118.739 24.698 118.21 24.6865" fill="#6B4290"/>
<path d="M123.586 24.5031V16.053H124.932V19.6757H128.645V16.053H130V24.5031H128.645V20.8542H124.932V24.5031H123.586Z" fill="#6B4290"/>
<path d="M134.328 16.053H132.973V24.5031H134.328V16.053Z" fill="#6B4290"/>
<path d="M137.303 24.5031V16.053H138.648L142.652 22.2509V16.053H143.998V24.5031H142.652L138.648 18.3051V24.5031H137.303Z" fill="#6B4290"/>
<path d="M150.165 24.669C149.602 24.673 149.045 24.56 148.528 24.3372C148.025 24.1161 147.571 23.7987 147.191 23.4032C146.811 22.9972 146.512 22.5232 146.311 22.0065C146.095 21.4498 145.987 20.8573 145.995 20.2606C145.991 19.695 146.089 19.1333 146.285 18.602C146.486 18.0827 146.785 17.6058 147.165 17.1965C147.547 16.7897 148.008 16.4631 148.52 16.2362C149.074 15.9949 149.674 15.873 150.279 15.8783C150.674 15.8769 151.067 15.9238 151.45 16.018C151.825 16.1044 152.189 16.2362 152.531 16.4109C152.848 16.5839 153.143 16.7919 153.411 17.0307L152.761 18.0694C152.437 17.7523 152.05 17.5055 151.626 17.3449C151.188 17.1726 150.723 17.0838 150.253 17.083C149.839 17.0759 149.428 17.1563 149.047 17.3187C148.708 17.475 148.407 17.7047 148.168 17.9909C147.919 18.2865 147.73 18.6276 147.613 18.9948C147.488 19.387 147.425 19.7966 147.429 20.2082C147.423 20.6477 147.495 21.0847 147.64 21.5002C147.768 21.8749 147.969 22.2217 148.229 22.5215C148.474 22.8001 148.773 23.0259 149.109 23.185C149.447 23.3428 149.817 23.4234 150.191 23.4206C150.506 23.421 150.819 23.3678 151.115 23.2635C151.402 23.1604 151.67 23.0099 151.907 22.8183C152.139 22.6333 152.328 22.4012 152.461 22.1374C152.605 21.8687 152.677 21.5684 152.672 21.2645V21.0724H150.103V20.086H154.054V21.1772C154.06 21.6853 153.945 22.1876 153.719 22.6437C153.51 23.0743 153.21 23.4553 152.84 23.7611C152.077 24.3715 151.127 24.7042 150.148 24.7038" fill="#6B4290"/>
<path d="M157.344 24.5031V17.2489H155.03V16.053H161.013V17.2489H158.69V24.5031H157.344Z" fill="#6B4290"/>
<path d="M166.037 24.6689C165.462 24.6733 164.893 24.5572 164.366 24.3285C163.323 23.8764 162.502 23.0362 162.078 21.9889C161.633 20.8941 161.633 19.6705 162.078 18.5757C162.278 18.0584 162.577 17.5842 162.958 17.179C163.346 16.7784 163.809 16.458 164.322 16.2362C164.85 16.0114 165.419 15.8955 165.993 15.8955C166.568 15.8955 167.137 16.0114 167.665 16.2362C168.179 16.4606 168.645 16.7807 169.038 17.179C169.417 17.5859 169.714 18.0597 169.917 18.5757C170.363 19.6705 170.363 20.8941 169.917 21.9889C169.711 22.5098 169.403 22.9848 169.01 23.3864C168.617 23.788 168.148 24.1082 167.63 24.3285C167.103 24.5572 166.533 24.6733 165.959 24.6689M165.959 23.3682C166.34 23.3734 166.719 23.2984 167.069 23.1479C167.419 22.9975 167.733 22.775 167.991 22.4952C168.251 22.2073 168.455 21.8725 168.589 21.5088C168.871 20.7151 168.871 19.8496 168.589 19.0558C168.455 18.6922 168.251 18.3574 167.991 18.0694C167.733 17.7896 167.419 17.5672 167.069 17.4167C166.719 17.2663 166.34 17.1912 165.959 17.1965C165.574 17.1939 165.193 17.2712 164.841 17.4234C164.51 17.5836 164.212 17.8025 163.961 18.0694C163.703 18.3595 163.5 18.6938 163.363 19.0558C163.081 19.8496 163.081 20.7151 163.363 21.5088C163.5 21.8709 163.703 22.2051 163.961 22.4952C164.21 22.7646 164.509 22.9839 164.841 23.1413C165.192 23.2968 165.574 23.3743 165.959 23.3682Z" fill="#6B4290"/>
<path d="M172.311 24.5031V16.053H173.665L177.66 22.2509V16.053H179.006V24.5031H177.66L173.665 18.3051V24.5031H172.311Z" fill="#6B4290"/>
<path d="M95.8537 12.273V7.62026H94.3672V6.85205H98.212V7.62026H96.7249V12.273H95.8537Z" fill="#6B4290"/>
<path d="M99.4785 12.273V6.85205H100.341V9.17409H102.725V6.85205H103.596V12.273H102.725V9.93356H100.341V12.273H99.4785Z" fill="#6B4290"/>
<path d="M105.443 12.273V6.85205H108.382V7.60279H106.315V9.17409H108.303V9.93356H106.315V11.5136H108.382V12.273H105.443Z" fill="#6B4290"/>
<path d="M94.7451 36.9339L95.6864 28.5012H97.1205L99.3112 34.2452L101.511 28.5012H102.945L103.887 36.9339H102.54L101.863 30.9193L99.7426 36.6109H98.8891L96.7683 30.9193L96.1 36.9339H94.7451Z" fill="#6B4290"/>
<path d="M105.364 36.9339L108.752 28.5012H110.001L113.388 36.9339H111.937L111.057 34.7341H107.652L106.816 36.9339H105.364ZM108.109 33.5556H110.643L109.411 30.2995L108.109 33.5556Z" fill="#6B4290"/>
<path d="M115.096 36.9339V28.5012H117.735C118.247 28.4876 118.755 28.5891 119.222 28.798C119.63 28.982 119.971 29.2869 120.199 29.6709C120.435 30.0761 120.554 30.5384 120.542 31.0065C120.55 31.4072 120.466 31.8044 120.295 32.1676C120.14 32.5136 119.897 32.8143 119.591 33.0405C119.265 33.2706 118.893 33.4284 118.501 33.5032L121.298 36.995H119.591L117.04 33.6778H116.451V36.995L115.096 36.9339ZM116.451 32.4993H117.33C117.662 32.5078 117.993 32.4453 118.298 32.316C118.552 32.215 118.767 32.038 118.914 31.8097C119.062 31.5745 119.139 31.3015 119.134 31.024C119.144 30.822 119.107 30.6204 119.024 30.4354C118.942 30.2504 118.817 30.0872 118.659 29.959C118.276 29.6787 117.805 29.5426 117.33 29.5749H116.451V32.4993Z" fill="#6B4290"/>
<path d="M123.172 36.9339V28.5012H124.518V32.1327L127.879 28.5012H129.542L125.741 32.5953L130.035 36.9339H128.161L124.518 33.2675V36.9339H123.172Z" fill="#6B4290"/>
<path d="M131.794 36.9339V28.5012H136.36V29.671H133.14V32.1152H136.237V33.2937H133.14V35.7554H136.36V36.9339H131.794Z" fill="#6B4290"/>
<path d="M140.425 36.9339V29.6884H138.12V28.5012H144.094V29.6884H141.771V36.9339H140.425Z" fill="#6B4290"/>
<path d="M97.1464 49.5131C96.7713 49.518 96.3969 49.465 96.0382 49.3559C95.7293 49.2665 95.4334 49.1375 95.1585 48.9719C94.9307 48.8447 94.718 48.6924 94.5249 48.5179L94.1289 48.1426L94.8417 47.0601L95.2024 47.4093C95.3614 47.5562 95.5323 47.6905 95.7123 47.8108C95.9237 47.9409 96.1475 48.0491 96.3812 48.1338C96.6365 48.231 96.9081 48.2784 97.1817 48.2735C97.4383 48.2794 97.6929 48.2318 97.9299 48.1338C98.1406 48.0446 98.3232 47.8996 98.4574 47.7148C98.5949 47.5179 98.6629 47.2817 98.6512 47.0427C98.6557 46.8323 98.6047 46.6244 98.5019 46.4403C98.3972 46.2667 98.2565 46.1177 98.0882 46.0038C97.8808 45.8683 97.6628 45.7487 97.437 45.6459L96.5573 45.288C96.3354 45.1962 96.1207 45.0882 95.9152 44.965C95.7037 44.8444 95.5087 44.6978 95.3339 44.5285C95.1585 44.3607 95.0158 44.1625 94.9117 43.9436C94.8057 43.6985 94.7547 43.4334 94.7625 43.1668C94.7651 42.8665 94.828 42.5699 94.9471 42.2938C95.0688 42.0049 95.2482 41.7436 95.4753 41.5256C95.7116 41.2942 95.9931 41.1131 96.302 40.9931C96.6404 40.8594 97.0024 40.7941 97.3669 40.801C97.6792 40.8004 97.9907 40.8446 98.2905 40.932C98.5779 41.0229 98.8547 41.1428 99.1172 41.2899C99.3424 41.4197 99.5498 41.5782 99.7331 41.7613L99.1794 42.7827C99.0413 42.6374 98.8842 42.5111 98.7127 42.4073C98.5281 42.2837 98.3265 42.1867 98.1144 42.1192C97.8925 42.049 97.6608 42.0137 97.4285 42.0144C97.1771 42.0061 96.9284 42.0633 96.7065 42.1803C96.5232 42.2749 96.3694 42.4178 96.2627 42.5933C96.1554 42.7689 96.0991 42.9703 96.0997 43.1755C96.0952 43.3343 96.1351 43.4912 96.2143 43.6294C96.2896 43.7543 96.3917 43.8615 96.5134 43.9436C96.6568 44.0408 96.8099 44.1227 96.9709 44.1881L97.5077 44.4063C97.886 44.5547 98.229 44.7119 98.5458 44.8603C98.8397 45.0041 99.1172 45.1797 99.3725 45.384C99.6016 45.5763 99.7875 45.8142 99.9184 46.0824C100.051 46.385 100.117 46.7124 100.111 47.0427C100.122 47.5207 99.9904 47.9913 99.7331 48.3957C99.4713 48.7764 99.1093 49.0784 98.6865 49.2686C98.1989 49.4715 97.6752 49.5725 97.1464 49.5655" fill="#6B4290"/>
<path d="M106.183 49.5132C105.58 49.5131 104.982 49.3975 104.423 49.1728C103.88 48.9524 103.382 48.636 102.954 48.2386C102.54 47.8437 102.208 47.3722 101.977 46.8507C101.745 46.3097 101.625 45.7277 101.625 45.1397C101.625 44.5517 101.745 43.9697 101.977 43.4287C102.208 42.9042 102.539 42.4296 102.954 42.032C103.382 41.6347 103.88 41.3182 104.423 41.098C104.982 40.8754 105.58 40.7627 106.183 40.7662C106.687 40.7628 107.188 40.8364 107.67 40.9845C108.106 41.1137 108.517 41.3176 108.884 41.5868L108.294 42.7216C108.033 42.5095 107.735 42.3467 107.414 42.2415C107.053 42.1285 106.676 42.0725 106.297 42.0756C105.857 42.0712 105.421 42.1512 105.012 42.3113C104.633 42.4625 104.286 42.6848 103.992 42.9661C103.704 43.2417 103.474 43.571 103.314 43.935C103.154 44.3165 103.073 44.7264 103.077 45.1397C103.073 45.5502 103.154 45.9572 103.314 46.3356C103.473 46.7023 103.704 47.0345 103.992 47.3133C104.289 47.5889 104.635 47.808 105.012 47.9594C105.421 48.1194 105.857 48.1994 106.297 48.195C106.676 48.1981 107.053 48.1422 107.414 48.0292C107.735 47.9239 108.033 47.7612 108.294 47.549L108.884 48.6839C108.521 48.9468 108.117 49.1474 107.687 49.2775C107.202 49.4376 106.694 49.5172 106.183 49.5132Z" fill="#6B4290"/>
<path d="M110.819 49.3473V40.9146H112.174V44.5286H115.878V40.9146H117.225V49.3473H115.878V45.7071H112.174V49.3473H110.819Z" fill="#6B4290"/>
<path d="M123.805 49.5131C123.23 49.5175 122.661 49.4015 122.134 49.1726C121.625 48.9487 121.162 48.6319 120.77 48.2386C120.393 47.8302 120.095 47.3568 119.89 46.8419C119.444 45.7471 119.444 44.5235 119.89 43.4287C120.096 42.9164 120.393 42.4459 120.77 42.0406C121.159 41.642 121.622 41.3218 122.134 41.0979C122.663 40.8759 123.231 40.7631 123.805 40.7662C124.377 40.763 124.942 40.8759 125.468 41.0979C125.982 41.3223 126.448 41.6424 126.841 42.0406C127.65 42.8718 128.098 43.9843 128.09 45.1397C128.098 45.738 127.984 46.3318 127.756 46.8855C127.551 47.4005 127.253 47.8738 126.876 48.2823C126.481 48.6758 126.016 48.9926 125.503 49.2163C124.98 49.4452 124.413 49.5612 123.841 49.5568M123.841 48.2648C124.229 48.2694 124.613 48.1889 124.967 48.0291C125.302 47.8772 125.602 47.6571 125.846 47.3831C126.108 47.0984 126.31 46.7665 126.445 46.4054C126.727 45.6116 126.727 44.7462 126.445 43.9524C126.31 43.5914 126.108 43.2595 125.846 42.9747C125.6 42.7028 125.301 42.4831 124.967 42.3288C124.611 42.1766 124.228 42.0993 123.841 42.1018C123.461 42.095 123.085 42.1696 122.737 42.3202C122.39 42.4709 122.079 42.6941 121.825 42.9747C121.565 43.2595 121.362 43.5914 121.227 43.9524C120.946 44.7462 120.946 45.6116 121.227 46.4054C121.362 46.7665 121.565 47.0984 121.825 47.3831C122.081 47.6602 122.393 47.8811 122.74 48.0314C123.087 48.1818 123.462 48.2583 123.841 48.2561" fill="#6B4290"/>
<path d="M134.091 49.5129C133.516 49.5173 132.946 49.4013 132.419 49.1725C131.909 48.9508 131.446 48.6337 131.056 48.2384C130.679 47.8298 130.381 47.3565 130.176 46.8417C129.742 45.7447 129.742 44.5255 130.176 43.4285C130.382 42.9165 130.679 42.4461 131.056 42.0405C131.447 41.6335 131.917 41.3095 132.438 41.0881C132.959 40.8668 133.52 40.7527 134.087 40.7527C134.654 40.7527 135.214 40.8668 135.735 41.0881C136.256 41.3095 136.727 41.6335 137.118 42.0405C137.496 42.4438 137.795 42.9148 137.998 43.4285C138.432 44.5255 138.432 45.7447 137.998 46.8417C137.796 47.3584 137.498 47.8324 137.118 48.2384C136.728 48.6337 136.265 48.9508 135.754 49.1725C135.23 49.4006 134.664 49.5166 134.091 49.5129ZM134.091 48.221C134.476 48.2243 134.858 48.1438 135.208 47.9853C135.545 47.8351 135.845 47.6148 136.089 47.3392C136.349 47.0545 136.553 46.7226 136.687 46.3615C136.968 45.5678 136.968 44.7023 136.687 43.9086C136.553 43.5476 136.349 43.2156 136.089 42.9309C135.844 42.657 135.544 42.4369 135.208 42.2849C134.855 42.1351 134.475 42.0578 134.091 42.0578C133.707 42.0578 133.327 42.1351 132.974 42.2849C132.641 42.4422 132.343 42.6615 132.094 42.9309C131.836 43.2161 131.636 43.5481 131.504 43.9086C131.211 44.7003 131.211 45.5698 131.504 46.3615C131.636 46.7221 131.836 47.0541 132.094 47.3392C132.341 47.6112 132.64 47.8309 132.974 47.9853C133.324 48.1438 133.706 48.2243 134.091 48.221Z" fill="#6B4290"/>
<path d="M140.435 49.3473V40.9146H141.78V48.1687H145.036V49.3473H140.435Z" fill="#6B4290"/>
<path d="M83.3248 1.87622H82.7266V54.4801H83.3248V1.87622Z" fill="#6B4290"/>
<path d="M71.3679 23.8833C68.5933 20.1178 64.9202 17.0943 60.678 15.084L59.5783 14.5776C54.4137 12.2992 47.5423 10.8414 38.4624 11.5223C32.3407 11.855 26.3184 13.2034 20.646 15.5117L18.8952 13.4516C17.9973 12.6063 16.8071 12.1346 15.5694 12.1334H8.71556C8.56076 12.1357 8.4131 12.1983 8.30444 12.3077C8.19579 12.4172 8.13491 12.5646 8.13491 12.7183V22.7048L6.47204 23.7262C4.89441 24.0342 3.34396 24.4662 1.83535 25.0181C1.72411 25.0591 1.6282 25.133 1.56056 25.2298C1.49291 25.3266 1.45678 25.4416 1.45703 25.5593C1.45801 25.6768 1.49463 25.7913 1.56211 25.8879C1.62959 25.9843 1.72481 26.0585 1.83535 26.1006C3.34703 26.6431 4.89673 27.0749 6.47204 27.3925C7.02632 27.733 7.56304 28.0822 8.10854 28.4401V38.3567C8.11076 38.5089 8.17268 38.6541 8.28108 38.7617C8.38953 38.8693 8.53589 38.9307 8.68918 38.9329H15.543C16.818 38.9333 18.0416 38.4346 18.9479 37.5449L20.5492 35.5808C26.2355 37.8951 32.2727 39.2465 38.4097 39.5789H38.6912L39.0255 46.1959C39.0345 46.3448 39.1006 46.4848 39.2102 46.587C39.3198 46.6893 39.4646 46.7461 39.615 46.7458H53.9826C54.1082 46.7449 54.2302 46.7035 54.3301 46.628C54.4301 46.5524 54.5026 46.4467 54.5369 46.3268L57.1763 37.4489C62.8523 35.5677 67.8072 31.9987 71.3679 27.2267C71.7234 26.7407 71.9151 26.1555 71.9151 25.555C71.9151 24.9545 71.7234 24.3693 71.3679 23.8833ZM69.274 24.9745H59.0767C59.0987 23.5464 59.2075 22.1209 59.4023 20.7058C62.8865 21.6296 66.2239 23.031 69.3179 24.8697C69.3709 24.8697 69.3179 24.9745 69.274 24.9745ZM38.48 12.6921C39.9933 12.5786 41.4363 12.5262 42.8264 12.5262C48.4717 12.4163 54.0754 13.5056 59.2615 15.7212C58.9046 16.8684 58.6108 18.0341 58.3817 19.213C52.9967 17.915 47.4703 17.2846 41.929 17.3362C29.0484 17.3362 16.8891 20.8803 10.4137 23.1675L9.38425 23.2635L10.1673 22.7485L12.3845 21.3081C12.4397 21.2653 12.4986 21.2273 12.5604 21.1946L13.625 20.5137L13.7922 20.409C14.1617 20.182 14.5312 19.955 14.9095 19.7368L15.0679 19.6407C15.4463 19.4138 15.8334 19.1956 16.2381 18.9686L16.3788 18.89C16.7836 18.663 17.1971 18.4448 17.6106 18.2266L17.7514 18.148L19.0535 17.4671L19.2119 17.3886C19.643 17.1791 20.0917 16.9782 20.5492 16.7775C26.2457 14.381 32.3192 12.9867 38.4976 12.6572M57.8538 24.9395H21.8601C21.7366 24.7263 21.5445 24.5604 21.3146 24.4681C19.0987 23.6315 16.7598 23.1597 14.3905 23.0715C21.1651 20.9502 31.3183 18.4885 41.9818 18.4885C47.4635 18.4408 52.9295 19.0801 58.2497 20.3915C58.0267 21.9096 57.9032 23.4405 57.8802 24.9745M58.2409 30.7185C52.9238 32.0309 47.4607 32.6703 41.9818 32.6215C31.3007 32.6215 21.1299 30.151 14.3553 28.0298C16.75 27.9417 19.1134 27.4609 21.3499 26.6069C21.5797 26.5147 21.7718 26.3487 21.8954 26.1355H57.8802C57.9047 27.6691 58.0252 29.1997 58.2409 30.7185ZM9.34026 13.2595H15.6046C16.5157 13.257 17.3947 13.5934 18.0681 14.2023L19.5198 15.9482C18.0769 16.6029 16.7396 17.3013 15.4726 18.0171L14.3113 18.698L14.1089 18.8202L13.1235 19.4225L12.7627 19.6495L11.9357 20.1733L11.3639 20.5399L10.748 20.9415L9.92097 21.4914L9.5954 21.7009L9.35787 21.8493L9.34026 13.2595ZM4.26367 25.4371C7.60702 24.5206 14.3376 23.2286 20.3381 25.4371C20.365 25.4471 20.3883 25.465 20.4046 25.4883C20.4211 25.5118 20.4298 25.5396 20.4298 25.5681C20.4298 25.5966 20.4211 25.6244 20.4046 25.6478C20.3883 25.6713 20.365 25.6891 20.3381 25.699C14.32 27.9076 7.60702 26.572 4.26367 25.699C4.23673 25.6891 4.2135 25.6713 4.19709 25.6478C4.18068 25.6244 4.17188 25.5966 4.17188 25.5681C4.17188 25.5396 4.18068 25.5118 4.19709 25.4883C4.2135 25.465 4.23673 25.4471 4.26367 25.4371ZM18.0857 36.7854C17.4081 37.4274 16.5063 37.784 15.5694 37.7806H9.30505V29.1908L9.54265 29.3392C12.6828 31.524 15.9993 33.4481 19.4582 35.0919L18.0857 36.7854ZM54.7216 41.7613H44.7092C44.5664 41.7787 44.435 41.8473 44.3396 41.9543C44.2442 42.0612 44.1916 42.199 44.1916 42.3418C44.1916 42.4846 44.2442 42.6224 44.3396 42.7293C44.435 42.8363 44.5664 42.9049 44.7092 42.9223H54.3873L53.5866 45.5935H40.1693L39.9054 39.6662H40.0637C40.706 39.6662 41.3307 39.7186 41.9466 39.7273H42.8792H43.759H44.8148C48.5862 39.6359 52.3287 39.0489 55.9446 37.9814L54.7216 41.7613ZM56.6221 36.4363C53.4044 37.5171 50.0601 38.1831 46.6712 38.4179L46.0554 38.4702C45.5099 38.4702 44.9556 38.5226 44.4013 38.5401C43.847 38.5576 43.5215 38.5401 43.0287 38.5401H41.6651C40.6268 38.5401 39.571 38.479 38.4713 38.3917C32.3835 38.0605 26.3972 36.7026 20.7692 34.3761C20.7297 34.3346 20.6817 34.3018 20.6284 34.2801C16.9639 32.604 13.4597 30.6026 10.1585 28.3004L9.46345 27.8377C9.78018 27.8814 10.0969 27.9076 10.4224 27.9338C16.898 30.2209 29.0484 33.765 41.9202 33.765C47.4637 33.823 52.9931 33.1985 58.3817 31.9057C58.6095 33.0849 58.9032 34.2507 59.2615 35.3975C58.4433 35.7641 57.581 36.1133 56.6221 36.4363ZM59.0591 26.1355H69.3264C69.3382 26.1355 69.3493 26.1401 69.3578 26.1483C69.3663 26.1565 69.3709 26.1675 69.3709 26.1791C69.3709 26.1907 69.3663 26.2018 69.3578 26.21C69.3493 26.2182 69.3382 26.2228 69.3264 26.2228C66.2232 28.0714 62.8736 29.4789 59.3759 30.4042C59.1767 28.9895 59.068 27.5638 59.0504 26.1355M60.3261 34.865C60.0082 33.7774 59.7526 32.6728 59.5607 31.5565C63.0716 30.6419 66.4405 29.2556 69.5732 27.4362C69.5732 27.4362 69.6609 27.4362 69.6255 27.506C67.1193 30.6229 63.9536 33.1559 60.3525 34.9261M59.587 19.5447C59.7822 18.4349 60.0378 17.3362 60.3525 16.2537C63.9344 17.9921 67.0951 20.4786 69.617 23.5428C69.617 23.5952 69.617 23.6738 69.5378 23.6388C66.4235 21.8323 63.076 20.4549 59.587 19.5447Z" fill="#6B4290"/>
</g>
<defs>
<clipPath id="clip0_68_778">
<rect width="178.691" height="54.3273" fill="white" transform="translate(0.691406 0.836426)"/>
</clipPath>
</defs>
</svg>
